<?xml version="1.0" encoding="UTF-8"?>
<svg version="1.1" xmlns="http://www.w3.org/2000/svg" width="240" height="161">
<path d="M0 0 C0 7.59 0 15.18 0 23 C6.27 22.01 12.54 21.02 19 20 C19.33 29.9 19.66 39.8 20 50 C20.99 50.33 21.98 50.66 23 51 C23.99 50.34 24.98 49.68 26 49 C26.41609272 46.67699616 26.41609272 46.67699616 26.29296875 43.9921875 C26.28330078 43.00605469 26.27363281 42.01992187 26.26367188 41.00390625 C26.23853516 39.97136719 26.21339844 38.93882812 26.1875 37.875 C26.17396484 36.83472656 26.16042969 35.79445312 26.14648438 34.72265625 C26.11105228 32.14792373 26.06165221 29.5742167 26 27 C24.68 26.34 23.36 25.68 22 25 C22 24.34 22 23.68 22 23 C28.27 22.01 34.54 21.02 41 20 C41.05607422 23.21363281 41.05607422 23.21363281 41.11328125 26.4921875 C41.15947563 28.56406952 41.21071647 30.63576934 41.26245117 32.70751953 C41.29573178 34.14881342 41.32375404 35.59023863 41.34643555 37.03173828 C41.3799262 39.10245797 41.432233 41.17197093 41.48828125 43.2421875 C41.51446533 44.4885498 41.54064941 45.73491211 41.56762695 47.01904297 C41.78165161 48.4946167 41.78165161 48.4946167 42 50 C42.99 50.66 43.98 51.32 45 52 C45 37.48 45 22.96 45 8 C44.01 7.67 43.02 7.34 42 7 C42 6.01 42 5.02 42 4 C44.43681587 3.49645133 46.87435439 2.99703244 49.3125 2.5 C50.34793945 2.28537109 50.34793945 2.28537109 51.40429688 2.06640625 C54.32524773 1.47374956 57.01108122 1 60 1 C60.495 11.395 60.495 11.395 61 22 C62.98 21.34 64.96 20.68 67 20 C72.00048333 19.59386937 75.96174856 20.527227 79.9375 23.625 C83.18052057 26.80030088 84.39078814 29.43091108 85 34 C85.06100034 40.39486871 84.28656722 45.01831377 80 50 C75.09327282 54.72689948 71.48911487 56.148275 64.6875 56.1875 C63.57761719 56.20167969 62.46773438 56.21585938 61.32421875 56.23046875 C58 56 58 56 54.76953125 54.86328125 C53.85558594 54.57839844 52.94164062 54.29351562 52 54 C51.01 54.66 50.02 55.32 49 56 C46.63989258 56.22705078 46.63989258 56.22705078 43.89453125 56.1953125 C42.91162109 56.18886719 41.92871094 56.18242187 40.91601562 56.17578125 C39.89185547 56.15902344 38.86769531 56.14226562 37.8125 56.125 C36.77673828 56.11597656 35.74097656 56.10695312 34.67382812 56.09765625 C32.11565315 56.0740786 29.55794252 56.0411703 27 56 C26.67 55.34 26.34 54.68 26 54 C25.46375 54.32226562 24.9275 54.64453125 24.375 54.9765625 C21.4613142 56.23213105 19.1668686 56.33541414 16 56.375 C14.96875 56.40335938 13.9375 56.43171875 12.875 56.4609375 C9.28549202 55.88544573 8.17320069 54.86741758 6 52 C5.04057704 49.00615245 4.81722744 46.14647152 4.68359375 43.015625 C4.64169922 42.08105469 4.59980469 41.14648438 4.55664062 40.18359375 C4.51732422 39.21550781 4.47800781 38.24742187 4.4375 37.25 C4.39431641 36.26644531 4.35113281 35.28289062 4.30664062 34.26953125 C4.20077948 31.84648725 4.09869829 29.4233446 4 27 C2.68 26.34 1.36 25.68 0 25 C0.08053241 29.45909298 0.1934045 33.9167834 0.3125 38.375 C0.33505859 39.64601562 0.35761719 40.91703125 0.38085938 42.2265625 C0.4340332 44.04414063 0.4340332 44.04414063 0.48828125 45.8984375 C0.51446533 47.01911621 0.54064941 48.13979492 0.56762695 49.29443359 C0.71031006 50.18727051 0.85299316 51.08010742 1 52 C1.99 52.66 2.98 53.32 4 54 C4 54.66 4 55.32 4 56 C-3.26 56 -10.52 56 -18 56 C-17.67 55.01 -17.34 54.02 -17 53 C-16.01 52.505 -16.01 52.505 -15 52 C-14.67 37.48 -14.34 22.96 -14 8 C-16.475 7.01 -16.475 7.01 -19 6 C-18.67 5.34 -18.34 4.68 -18 4 C-15.72958206 3.39320032 -13.43153231 2.88795774 -11.125 2.4375 C-7.72128587 1.7630474 -3.40401838 0 0 0 Z M60 26 C59.94216158 30.29161047 59.9064588 34.58312145 59.875 38.875 C59.85824219 40.09832031 59.84148437 41.32164062 59.82421875 42.58203125 C59.81777344 43.74863281 59.81132812 44.91523438 59.8046875 46.1171875 C59.79421387 47.19597168 59.78374023 48.27475586 59.77294922 49.38623047 C59.73160023 52.16044022 59.73160023 52.16044022 62 54 C64.51047485 54.06546898 64.51047485 54.06546898 67 53 C71.17698406 47.4639972 70.75217073 41.6495093 70 35 C68.88786194 31.67861472 67.52466702 28.52466702 65 26 C63.33382885 25.95936168 61.66611905 25.957279 60 26 Z " fill="#030F2F" transform="translate(135,105)"/>
<path d="M0 0 C1.00160156 0.0103125 2.00320312 0.020625 3.03515625 0.03125 C6.31105149 0.56033133 8.26639526 1.55737837 10.9375 3.5 C12.44412097 6.51324195 12.11520373 9.18286377 11.9375 12.5 C9.9375 14.5 9.9375 14.5 6.4375 14.75 C2.9375 14.5 2.9375 14.5 0.9375 12.5 C0.7421875 10.1171875 0.7421875 10.1171875 0.8125 7.375 C0.83054687 6.46492188 0.84859375 5.55484375 0.8671875 4.6171875 C0.89039062 3.91851562 0.91359375 3.21984375 0.9375 2.5 C-2.78864153 3.61854586 -2.78864153 3.61854586 -5.0625 6.5 C-5.29490505 9.21426141 -5.48158802 11.90633767 -5.625 14.625 C-5.769375 17.22375 -5.91375 19.8225 -6.0625 22.5 C1.8575 22.17 9.7775 21.84 17.9375 21.5 C18.2675 32.06 18.5975 42.62 18.9375 53.5 C19.9275 53.83 20.9175 54.16 21.9375 54.5 C22.02 53.571875 22.1025 52.64375 22.1875 51.6875 C22.9375 48.5 22.9375 48.5 24.8125 46.625 C26.9375 45.5 26.9375 45.5 29.9375 45.5 C29.9375 44.84 29.9375 44.18 29.9375 43.5 C29.174375 43.2525 28.41125 43.005 27.625 42.75 C24.55995962 41.32439982 23.47639718 40.49679976 21.9375 37.5 C21.52490031 33.71783621 21.61232185 31.25304414 23.125 27.75 C26.29478414 23.81509555 29.32709279 22.44743326 34.25 21.8125 C35.466875 21.709375 36.68375 21.60625 37.9375 21.5 C37.999375 20.448125 38.06125 19.39625 38.125 18.3125 C39.09250269 13.77267969 40.21930527 12.22667613 43.9375 9.5 C47.125 9.0625 47.125 9.0625 49.9375 9.5 C51.9375 11.5 51.9375 11.5 52.1875 14.5 C51.9375 17.5 51.9375 17.5 49.9375 19.5 C47.7734375 19.6953125 47.7734375 19.6953125 45.3125 19.625 C44.49523437 19.60695313 43.67796875 19.58890625 42.8359375 19.5703125 C42.20945312 19.54710938 41.58296875 19.52390625 40.9375 19.5 C40.9375 20.16 40.9375 20.82 40.9375 21.5 C41.51757812 21.58636719 42.09765625 21.67273438 42.6953125 21.76171875 C48.46825727 22.8000867 52.1730799 23.86686757 55.9375 28.5 C57.03675571 32.72086006 57.0323582 36.48646768 54.91796875 40.375 C50.05170536 45.51089804 42.95372908 45.97633279 36.2890625 46.95703125 C33.10496638 47.13755827 33.10496638 47.13755827 31.9375 48.5 C32.54746826 48.53963867 33.15743652 48.57927734 33.78588867 48.62011719 C36.56723631 48.81144219 39.34574454 49.03044065 42.125 49.25 C43.56456055 49.3428125 43.56456055 49.3428125 45.03320312 49.4375 C50.43628929 49.8861992 54.13484117 50.24858019 57.9375 54.5 C59.57083319 59.39999957 59.63236987 63.05467068 57.375 67.75 C52.62914412 73.10429894 47.93484856 73.66081177 41.0625 74.3125 C33.88151153 74.67879909 28.16397522 74.34370012 21.875 70.75 C19.9375 68.5 19.9375 68.5 19.4375 65.5 C19.97109365 62.29843809 20.76127386 60.85757832 22.9375 58.5 C21.92113023 57.26078789 21.92113023 57.26078789 19.80444336 57.38647461 C18.42977905 57.39432983 18.42977905 57.39432983 17.02734375 57.40234375 C15.54331055 57.40717773 15.54331055 57.40717773 14.02929688 57.41210938 C12.46791992 57.42467773 12.46791992 57.42467773 10.875 57.4375 C9.30782227 57.44426758 9.30782227 57.44426758 7.70898438 57.45117188 C5.1184334 57.46300087 2.52799441 57.47948311 -0.0625 57.5 C-0.0625 56.51 -0.0625 55.52 -0.0625 54.5 C1.4225 54.005 1.4225 54.005 2.9375 53.5 C3.2675 44.92 3.5975 36.34 3.9375 27.5 C0.6375 27.5 -2.6625 27.5 -6.0625 27.5 C-6.0625 36.08 -6.0625 44.66 -6.0625 53.5 C-4.4125 54.16 -2.7625 54.82 -1.0625 55.5 C-1.3925 56.16 -1.7225 56.82 -2.0625 57.5 C-8.9925 57.5 -15.9225 57.5 -23.0625 57.5 C-23.5575 56.015 -23.5575 56.015 -24.0625 54.5 C-22.5775 54.005 -22.5775 54.005 -21.0625 53.5 C-20.7325 44.92 -20.4025 36.34 -20.0625 27.5 C-21.3825 27.5 -22.7025 27.5 -24.0625 27.5 C-23.5675 26.015 -23.5675 26.015 -23.0625 24.5 C-22.4025 24.5 -21.7425 24.5 -21.0625 24.5 C-20.66804688 23.4790625 -20.66804688 23.4790625 -20.265625 22.4375 C-18.88681018 19.07104303 -17.38817205 15.77739787 -15.8125 12.5 C-15.53792969 11.89671875 -15.26335937 11.2934375 -14.98046875 10.671875 C-11.76481395 4.03868573 -7.75025894 -0.24000802 0 0 Z M38.9375 23.5 C35.9269594 25.10969095 35.9269594 25.10969095 35.25 27.125 C34.5506846 32.43979707 34.07554309 37.77777109 36.9375 42.5 C38.97855639 43.38693303 38.97855639 43.38693303 40.9375 43.5 C42.96554186 40.12533835 43.26361113 37.41110976 43.3125 33.5 C43.34085938 32.46875 43.36921875 31.4375 43.3984375 30.375 C42.83504386 26.86095153 41.63942398 25.72134462 38.9375 23.5 Z M25.9375 62.5 C25.52032721 64.91537838 25.52032721 64.91537838 25.9375 67.5 C30.20604495 71.62135374 34.70644737 71.78928181 40.35546875 71.71484375 C44.24109554 71.39153138 46.60500509 70.55622026 49.9375 68.5 C50.98917527 65.92267086 50.98917527 65.92267086 50.9375 63.5 C46.11022696 60.97665273 41.48899396 61.23699147 36.1875 61.3125 C35.31222656 61.31314453 34.43695313 61.31378906 33.53515625 61.31445312 C29.41047484 60.97604291 29.41047484 60.97604291 25.9375 62.5 Z " fill="#051131" transform="translate(117.0625,46.5)"/>
<path d="M0 0 C0.33 7.59 0.66 15.18 1 23 C3.31 22.01 5.62 21.02 8 20 C11.8621839 19.60046373 14.23554575 19.67723043 17.8125 21.1875 C21.03979607 23.86154532 21.84514477 26.65432465 22.31884766 30.77075195 C22.35026855 31.75003662 22.38168945 32.72932129 22.4140625 33.73828125 C22.47207031 35.33833008 22.47207031 35.33833008 22.53125 36.97070312 C22.5621875 38.07349609 22.593125 39.17628906 22.625 40.3125 C22.68300781 41.99569336 22.68300781 41.99569336 22.7421875 43.71289062 C22.83622011 46.47509852 22.92187341 49.237304 23 52 C23.99 52.33 24.98 52.66 26 53 C26 53.99 26 54.98 26 56 C11.48 56 -3.04 56 -18 56 C-18 55.01 -18 54.02 -18 53 C-16.515 52.505 -16.515 52.505 -15 52 C-15 37.48 -15 22.96 -15 8 C-15.99 7.67 -16.98 7.34 -18 7 C-18 6.01 -18 5.02 -18 4 C-15.37569876 3.3304744 -12.75063343 2.66426282 -10.125 2 C-9.00544922 1.71382812 -9.00544922 1.71382812 -7.86328125 1.421875 C-2.2265625 0 -2.2265625 0 0 0 Z M0 28 C-0.41678607 30.51896074 -0.41678607 30.51896074 -0.29296875 33.4453125 C-0.28330078 34.52167969 -0.27363281 35.59804687 -0.26367188 36.70703125 C-0.23853516 37.83496094 -0.21339844 38.96289062 -0.1875 40.125 C-0.17396484 41.26066406 -0.16042969 42.39632812 -0.14648438 43.56640625 C-0.11104319 46.37807387 -0.06163517 49.18880417 0 52 C1.76529595 53.21690533 1.76529595 53.21690533 4 54 C5.32 53.34 6.64 52.68 8 52 C8 43.75 8 35.5 8 27 C3.11785113 25.41074435 3.11785113 25.41074435 0 28 Z " fill="#030E2F" transform="translate(18,48)"/>
<path d="M0 0 C0 7.59 0 15.18 0 23 C1.65 22.01 3.3 21.02 5 20 C9.99331162 18.81976271 13.31019345 18.86826975 18 21 C20.27303778 22.64599288 20.88234271 23.53184836 21.56811523 26.26049805 C22.01045741 29.06633273 22.11351665 31.6805197 22.09765625 34.51953125 C22.09443359 35.54111328 22.09121094 36.56269531 22.08789062 37.61523438 C22.07532227 39.19788086 22.07532227 39.19788086 22.0625 40.8125 C22.05798828 41.88693359 22.05347656 42.96136719 22.04882812 44.06835938 C22.03707729 46.71229683 22.02064787 49.35611952 22 52 C23.32 52.33 24.64 52.66 26 53 C26 53.66 26 54.32 26 55 C18.74 55 11.48 55 4 55 C4.33 54.01 4.66 53.02 5 52 C5.99 51.505 5.99 51.505 7 51 C7 43.08 7 35.16 7 27 C3.25308553 25.60229416 3.25308553 25.60229416 1 27 C0.67 35.25 0.34 43.5 0 52 C1.485 52.495 1.485 52.495 3 53 C3 53.66 3 54.32 3 55 C-3.93 55 -10.86 55 -18 55 C-17.67 54.01 -17.34 53.02 -17 52 C-16.01 51.505 -16.01 51.505 -15 51 C-14.90110962 44.94943005 -14.82852082 38.89933065 -14.78027344 32.84814453 C-14.76016031 30.78979295 -14.73286603 28.73149848 -14.69824219 26.67333984 C-14.64971117 23.71437487 -14.62702834 20.75616539 -14.609375 17.796875 C-14.58872986 16.87694763 -14.56808472 15.95702026 -14.54681396 15.00921631 C-14.48095466 9.8020934 -14.48095466 9.8020934 -17.02441406 5.38769531 C-17.67635742 4.92975586 -18.32830078 4.47181641 -19 4 C-17.06140961 2.06140961 -13.77451294 1.98900533 -11.1875 1.4375 C-9.94355469 1.16808594 -8.69960937 0.89867188 -7.41796875 0.62109375 C-4 0 -4 0 0 0 Z " fill="#020E2F" transform="translate(180,0)"/>
<path d="M0 0 C0.33 17.16 0.66 34.32 1 52 C2.485 52.495 2.485 52.495 4 53 C4 53.99 4 54.98 4 56 C-3.26 56 -10.52 56 -18 56 C-18 55.01 -18 54.02 -18 53 C-16.515 52.505 -16.515 52.505 -15 52 C-15 37.48 -15 22.96 -15 8 C-16.32 7.34 -17.64 6.68 -19 6 C-19 5.34 -19 4.68 -19 4 C-16.20895657 3.3306277 -13.41722977 2.66438908 -10.625 2 C-9.43390625 1.71382812 -9.43390625 1.71382812 -8.21875 1.421875 C-7.45820312 1.24140625 -6.69765625 1.0609375 -5.9140625 0.875 C-4.8614624 0.62363281 -4.8614624 0.62363281 -3.78759766 0.3671875 C-2 0 -2 0 0 0 Z " fill="#020E2F" transform="translate(88,48)"/>
<path d="M0 0 C3.03808541 2.95027947 4.17159193 5.05665467 4.4765625 9.25 C4.2265625 12.8125 4.2265625 12.8125 3.1640625 14.8125 C0.03213594 16.42897822 -2.44529036 15.59915296 -5.7734375 14.8125 C-8.45436441 12.13157309 -8.16014007 10.42082637 -8.3984375 6.6875 C-8.47320312 5.59179688 -8.54796875 4.49609375 -8.625 3.3671875 C-8.67398438 2.52414063 -8.72296875 1.68109375 -8.7734375 0.8125 C-12.38199105 1.23248327 -12.38199105 1.23248327 -15.0859375 3.375 C-16.53011905 8.49528003 -16.12510736 12.62072991 -14.6484375 17.625 C-12.392453 21.46017365 -11.03857083 22.58217308 -6.7734375 23.8125 C-2.82030286 23.20947946 -0.58850127 22.768092 2.0390625 19.6875 C2.626875 18.759375 2.626875 18.759375 3.2265625 17.8125 C3.8865625 17.8125 4.5465625 17.8125 5.2265625 17.8125 C4.8564477 23.98107998 3.46881147 26.57025103 -0.7734375 30.8125 C-5.84742446 34.08712154 -11.98382995 33.37733976 -17.7734375 32.8125 C-23.17517947 31.17335071 -26.08528032 27.67186105 -28.7734375 22.8125 C-30.51317118 17.59329895 -30.24234931 13.26859457 -28.5859375 8.125 C-25.82712594 3.08303404 -22.97733159 0.05413705 -17.6484375 -2.125 C-11.81601771 -3.83181181 -5.15590535 -3.45241239 0 0 Z " fill="#041031" transform="translate(113.7734375,128.1875)"/>
<path d="M0 0 C3.37014218 2.29782422 5.46868178 4.48561293 7.75 7.875 C8.245 11.34 8.245 11.34 8.75 14.875 C1.49 14.875 -5.77 14.875 -13.25 14.875 C-11.97763988 21.65439807 -11.97763988 21.65439807 -8.5 24.375 C-4.63881551 26.15708515 -3.23654283 26.28690059 0.75 24.875 C2.87680738 23.32546891 4.77628476 21.62442942 6.75 19.875 C7.41 19.875 8.07 19.875 8.75 19.875 C8.23974064 24.26323051 7.5691066 27.41932094 4.75 30.875 C-0.06830147 34.43081382 -4.85845944 35.54171167 -10.79296875 35.25 C-15.73174246 34.4962285 -19.36753475 32.82158815 -22.85546875 29.21484375 C-26.82998861 23.79301974 -27.15212325 18.41038176 -26.25 11.875 C-24.2634392 5.91531761 -20.32800359 2.62197501 -14.9375 -0.4375 C-9.75694849 -1.76275736 -5.0619263 -1.75220526 0 0 Z M-10.25 1.875 C-12.90555703 5.74768734 -13.25 6.89506195 -13.25 11.875 C-9.95 11.875 -6.65 11.875 -3.25 11.875 C-3.91 8.905 -4.57 5.935 -5.25 2.875 C-6.9 2.545 -8.55 2.215 -10.25 1.875 Z " fill="#051131" transform="translate(200.25,69.125)"/>
<path d="M0 0 C2.5625 2.9375 2.5625 2.9375 4.5625 11.9375 C-2.6975 11.9375 -9.9575 11.9375 -17.4375 11.9375 C-15.68536359 19.13759635 -15.68536359 19.13759635 -10.4375 22.9375 C-6.83532877 23.46281664 -4.97423127 23.1936672 -1.6875 21.625 C0.78322445 19.96696845 0.78322445 19.96696845 2.5625 16.9375 C3.2225 16.9375 3.8825 16.9375 4.5625 16.9375 C4.1923852 23.10607998 2.80474897 25.69525103 -1.4375 29.9375 C-6.49509226 33.21991087 -12.65644126 32.39825686 -18.4375 31.9375 C-24.09857088 30.05047637 -26.83564943 26.82083103 -29.6875 21.6875 C-31.2202029 16.06758936 -31.21087198 10.96519182 -28.75 5.625 C-25.89990317 0.64722671 -22.72204711 -1.89745211 -17.1875 -3.4375 C-10.98753228 -4.58258555 -5.21953113 -3.64860428 0 0 Z M-15 -0.0625 C-17.24562461 3.06184729 -17.12584566 6.13531708 -17.4375 9.9375 C-14.1375 9.9375 -10.8375 9.9375 -7.4375 9.9375 C-7.68926486 4.59858218 -7.68926486 4.59858218 -9.875 -0.0625 C-11.99358753 -1.41839602 -12.88141247 -1.41839602 -15 -0.0625 Z " fill="#041031" transform="translate(234.4375,23.0625)"/>
<path d="M0 0 C0.33 0.99 0.66 1.98 1 3 C1.515625 2.484375 2.03125 1.96875 2.5625 1.4375 C6.01613434 -0.59925871 8.19031889 0.08285455 12 1 C14 3 14 3 14.3125 6.4375 C14 10 14 10 12.9375 12 C9.80370228 13.61744399 7.33824757 12.77495033 4 12 C3.01 11.34 2.02 10.68 1 10 C0.67 17.26 0.34 24.52 0 32 C1.32 32.33 2.64 32.66 4 33 C4 33.99 4 34.98 4 36 C-2.93 36 -9.86 36 -17 36 C-17.495 34.515 -17.495 34.515 -18 33 C-16.515 32.505 -16.515 32.505 -15 32 C-14.88385071 27.9169058 -14.81276543 23.83423623 -14.75 19.75 C-14.71648437 18.59113281 -14.68296875 17.43226562 -14.6484375 16.23828125 C-14.63554687 15.12324219 -14.62265625 14.00820312 -14.609375 12.859375 C-14.58842773 11.83295898 -14.56748047 10.80654297 -14.54589844 9.74902344 C-15.11120847 6.32677023 -16.37309927 5.17241963 -19 3 C-16.39643759 2.49666458 -13.79223349 1.99720622 -11.1875 1.5 C-10.08051758 1.28537109 -10.08051758 1.28537109 -8.95117188 1.06640625 C-5.92205609 0.49073719 -3.090804 0 0 0 Z " fill="#041031" transform="translate(226,68)"/>
<path d="M0 0 C0.66 0 1.32 0 2 0 C2 3.3 2 6.6 2 10 C4.97 10 7.94 10 11 10 C10.67 11.65 10.34 13.3 10 15 C7.36 15 4.72 15 2 15 C2.33 23.25 2.66 31.5 3 40 C5.475 39.505 5.475 39.505 8 39 C9.36020151 37.03241727 9.36020151 37.03241727 10 35 C10.99 35 11.98 35 13 35 C12.79861029 38.52431989 11.98017112 40.0247861 9.75 42.8125 C5.64941627 45.9729499 0.99608627 45.56061062 -3.9765625 45.56640625 C-7.69022612 44.87069407 -8.69154704 43.94866637 -11 41 C-11.45410156 38.15917969 -11.45410156 38.15917969 -11.390625 34.921875 C-11.37773437 33.76171875 -11.36484375 32.6015625 -11.3515625 31.40625 C-11.31804687 30.1996875 -11.28453125 28.993125 -11.25 27.75 C-11.23195312 26.52796875 -11.21390625 25.3059375 -11.1953125 24.046875 C-11.148181 21.03045922 -11.08239413 18.01562509 -11 15 C-12.65 15 -14.3 15 -16 15 C-14.20594641 13.00660712 -12.55798315 11.72876239 -10.25 10.3125 C-6.68355063 7.7748341 -4.25465163 4.98997544 -1.515625 1.609375 C-1.01546875 1.07828125 -0.5153125 0.5471875 0 0 Z " fill="#030F30" transform="translate(151,10)"/>
<path d="M0 0 C0.33 10.56 0.66 21.12 1 32 C2.485 32.495 2.485 32.495 4 33 C3.67 33.99 3.34 34.98 3 36 C-3.93 36 -10.86 36 -18 36 C-18 35.01 -18 34.02 -18 33 C-16.515 32.505 -16.515 32.505 -15 32 C-15 23.42 -15 14.84 -15 6 C-16.32 5.67 -17.64 5.34 -19 5 C-19 4.34 -19 3.68 -19 3 C-16.39643759 2.49666458 -13.79223349 1.99720622 -11.1875 1.5 C-10.08051758 1.28537109 -10.08051758 1.28537109 -8.95117188 1.06640625 C-5.92205609 0.49073719 -3.090804 0 0 0 Z " fill="#041030" transform="translate(64,68)"/>
<path d="M0 0 C2.4375 1.625 2.4375 1.625 4 4 C4.5625 6.9375 4.5625 6.9375 4 10 C1.9375 12.9375 1.9375 12.9375 -1 15 C-4.54361243 15 -6.86591591 14.65850044 -9.9375 12.875 C-11.6712306 9.81547541 -11.42145216 7.43182475 -11 4 C-8.11188513 -0.5054592 -5.11821063 -0.73117295 0 0 Z " fill="#041030" transform="translate(60,51)"/>
<path d="M0 0 C0.33 0 0.66 0 1 0 C1 7.59 1 15.18 1 23 C2.98 22.01 4.96 21.02 7 20 C7 20.66 7 21.32 7 22 C5.33333333 23.66666667 3.66666667 25.33333333 2 27 C0 25 0 25 -0.22705078 22.47802734 C-0.21657715 21.4411377 -0.20610352 20.40424805 -0.1953125 19.3359375 C-0.18886719 18.21445312 -0.18242187 17.09296875 -0.17578125 15.9375 C-0.15902344 14.761875 -0.14226562 13.58625 -0.125 12.375 C-0.11597656 11.19164062 -0.10695312 10.00828125 -0.09765625 8.7890625 C-0.07402812 5.85917477 -0.04108514 2.9296866 0 0 Z " fill="#192144" transform="translate(179,0)"/>
<path d="M0 0 C0.66 0.33 1.32 0.66 2 1 C3.4465242 1.15067214 4.8987934 1.24861036 6.3515625 1.31640625 C7.62773438 1.37924805 7.62773438 1.37924805 8.9296875 1.44335938 C9.81914063 1.48267578 10.70859375 1.52199219 11.625 1.5625 C12.97078125 1.62727539 12.97078125 1.62727539 14.34375 1.69335938 C16.56234283 1.79956861 18.7810488 1.90161194 21 2 C21 2.33 21 2.66 21 3 C14.07 3 7.14 3 0 3 C0 2.01 0 1.02 0 0 Z " fill="#1F2A47" transform="translate(46,101)"/>
<path d="M0 0 C1.66666667 1.66666667 3.33333333 3.33333333 5 5 C4.01 6.485 4.01 6.485 3 8 C2.01 7.67 1.02 7.34 0 7 C0 6.34 0 5.68 0 5 C-1.32 4.67 -2.64 4.34 -4 4 C-2.68 4 -1.36 4 0 4 C0 2.68 0 1.36 0 0 Z " fill="#2B364F" transform="translate(155,64)"/>
<path d="M0 0 C0.66 0.33 1.32 0.66 2 1 C1.67 1.33 1.34 1.66 1 2 C1.99 2.66 2.98 3.32 4 4 C1.69 4.66 -0.62 5.32 -3 6 C-2.625 3.5625 -2.625 3.5625 -2 1 C-1.34 0.67 -0.68 0.34 0 0 Z " fill="#121D3B" transform="translate(21,70)"/>
</svg>
