<svg width="289" height="16" viewBox="0 0 289 16" fill="none" xmlns="http://www.w3.org/2000/svg">
<g clip-path="url(#clip0_9381_9112)">
<path d="M0 0.201506V2.18849H5.34318V15.8217H7.58551V2.18849H13.0193V0.201506H0Z" fill="#12120D"/>
<path d="M55.212 0.223614L50.0649 6.62982L44.886 0.223614H42.7727V15.822H45.0053V3.6849L49.852 9.71367H50.2646L55.0566 3.6849V15.822H57.2987V0.223614H55.212Z" fill="#12120D"/>
<path d="M79.3292 0.223614L74.1809 6.62982L69.0022 0.223614H66.89V15.822H69.1214V3.6849L73.9682 9.71367H74.381L79.1728 3.6849V15.822H81.416V0.223614H79.3292Z" fill="#12120D"/>
<path d="M100.252 0.223614L96.0239 5.601L91.8535 0.223614H89.1591L94.9162 7.57102V15.822H97.2037V7.57102L102.96 0.223614H100.252Z" fill="#12120D"/>
<mask id="mask0_9381_9112" style="mask-type:luminance" maskUnits="userSpaceOnUse" x="0" y="0" width="289" height="16">
<path d="M0 2.08193e-05H288.999V16H0V2.08193e-05Z" fill="white"/>
</mask>
<g mask="url(#mask0_9381_9112)">
<path d="M31.0548 3.81316C32.2179 4.94069 32.7999 6.33129 32.7999 7.98301C32.7999 9.68017 32.2179 11.0984 31.0548 12.2377C29.8918 13.3761 28.4413 13.9457 26.7023 13.9457C24.9711 13.9457 23.5295 13.3869 22.3782 12.2703C21.2261 11.1547 20.65 9.75518 20.65 8.07281C20.65 6.33825 21.2242 4.91308 22.3723 3.79642C23.5206 2.67976 24.9859 2.12187 26.7692 2.12187C28.4641 2.12187 29.8918 2.68563 31.0548 3.81316ZM20.7052 2.2895C19.1285 3.81512 18.3408 5.74296 18.3408 8.07281C18.3408 10.3424 19.1237 12.2318 20.6885 13.7387C22.2522 15.2467 24.2088 15.9996 26.5576 15.9996C29.0174 15.9996 31.0559 15.2467 32.6728 13.7387C34.2886 12.2318 35.0972 10.3276 35.0972 8.02845C35.0972 5.72818 34.2967 3.81512 32.6946 2.2895C31.0933 0.762793 29.0884 9.19601e-05 26.6805 9.19601e-05C24.2718 9.19601e-05 22.2808 0.762793 20.7052 2.2895Z" fill="#12120D"/>
<path d="M282.233 2.36731C282.706 2.5308 283.072 2.81171 283.332 3.21002C283.592 3.60811 283.722 4.0536 283.722 4.54431C283.722 5.04306 283.606 5.48768 283.371 5.87882C283.137 6.26908 282.809 6.56194 282.389 6.75501C281.969 6.94916 281.193 7.0457 280.063 7.0457H279.216V2.12184H279.885C280.977 2.12184 281.76 2.20381 282.233 2.36731ZM279.216 15.8211V9.03268H279.796C280.525 9.03268 281.045 9.11638 281.355 9.28401C281.663 9.45055 282.009 9.72363 282.393 10.103C282.776 10.4824 283.198 10.992 283.659 11.6317L284.405 12.8497L285.096 13.9891L285.531 14.604C285.597 14.6927 285.642 14.7568 285.665 14.7932L286.344 15.8211H288.999L288.174 14.7047C287.846 14.2581 287.411 13.5919 286.868 12.7059C286.005 11.2995 285.336 10.3128 284.86 9.74711C284.385 9.18139 283.897 8.73503 283.399 8.40782C284.247 8.08061 284.897 7.58489 285.351 6.92264C285.804 6.26017 286.031 5.47486 286.031 4.56714C286.031 3.23458 285.568 2.17707 284.642 1.39545C283.717 0.614051 282.465 0.223786 280.889 0.223786H276.984V15.8211H279.216Z" fill="#12120D"/>
<path d="M172.508 0.223736V6.96803H163.751V0.223736H161.521V15.8221H163.751V9.03263H172.508V15.8221H174.74V0.223736H172.508Z" fill="#12120D"/>
<path d="M183.59 15.8217H185.821V0.223309H183.59V15.8217Z" fill="#12120D"/>
<path d="M194.596 0.223736V15.8221H203.844V13.7899H196.826V0.223736H194.596Z" fill="#12120D"/>
<path d="M211 0.223736V15.8221H213.231V8.55279H219.31V6.56581H213.231V2.21158H219.31V0.223736H211Z" fill="#12120D"/>
<path d="M227.562 15.8217H229.794V0.223309H227.562V15.8217Z" fill="#12120D"/>
<path d="M246.371 10.1271H249.371V13.3764L249.16 13.4435C247.918 13.8525 246.851 14.0575 245.958 14.0575C244.121 14.0575 242.619 13.4957 241.451 12.3712C240.283 11.2476 239.7 9.79984 239.7 8.02789C239.7 6.33855 240.283 4.91251 241.451 3.7515C242.619 2.59049 244.054 2.00999 245.757 2.00999C247.587 2.00999 249.432 2.55005 251.291 3.62931V1.35165C250.086 0.845064 249.089 0.497195 248.301 0.306955C247.512 0.117584 246.679 0.0230078 245.802 0.0230078C243.392 0.0230078 241.388 0.796797 239.789 2.34503C238.19 3.89348 237.39 5.83197 237.39 8.16182C237.39 10.3725 238.162 12.2323 239.705 13.7392C241.248 15.2462 243.31 15.9999 245.891 15.9999C247.78 15.9999 249.685 15.5831 251.603 14.7494V8.14008H246.371V10.1271Z" fill="#12120D"/>
<path d="M259.905 0.228174V15.8031H268.952V13.8161H262.136V8.9701H268.517V6.97247H262.136V2.21515H268.741V0.228174H259.905Z" fill="#12120D"/>
<path d="M119.3 4.12708H142.689V0.226168H119.3V4.12708Z" fill="#061E42"/>
<path d="M130.995 11.9297H142.69V4.12707H130.995V11.9297Z" fill="#D0002E"/>
<path d="M119.3 11.9297H130.995V4.12707H119.3V11.9297Z" fill="white"/>
<path d="M119.3 15.8315H142.689V11.9306H119.3V15.8315Z" fill="#061E42"/>
</g>
</g>
<defs>
<clipPath id="clip0_9381_9112">
<rect width="289" height="16" fill="white"/>
</clipPath>
</defs>
</svg>
